<?xml version="1.0" encoding="utf-8"?>
<!-- Generator: Adobe Illustrator 23.0.0, SVG Export Plug-In . SVG Version: 6.00 Build 0)  -->
<svg version="1.1" id="Layer_1" xmlns="http://www.w3.org/2000/svg" xmlns:xlink="http://www.w3.org/1999/xlink" x="0px" y="0px"
	 viewBox="0 0 178.7 79.4" style="enable-background:new 0 0 178.7 79.4;" xml:space="preserve">
<style type="text/css">
	.st0{fill:url(#Path_174_1_);}
	.st1{fill:url(#Path_175_1_);}
	.st2{fill:url(#Path_176_1_);}
	.st3{fill:url(#Path_177_1_);}
	.st4{fill:#0070C5;}
	.st5{fill:url(#Path_179_1_);}
	.st6{fill:url(#Path_180_1_);}
	.st7{fill:url(#Path_181_1_);}
	.st8{fill:url(#Path_182_1_);}
	.st9{fill:url(#Path_183_1_);}
	.st10{enable-background:new    ;}
	.st11{fill:#FFFFFF;}
</style>
<g id="Group_240" transform="translate(95.313 39.578)">
	
		<linearGradient id="Path_174_1_" gradientUnits="userSpaceOnUse" x1="-522.2287" y1="530.3904" x2="-522.7177" y2="530.3414" gradientTransform="matrix(20.219 0 0 -47.234 10486.6465 25046.9023)">
		<stop  offset="0" style="stop-color:#7DD2F7"/>
		<stop  offset="1" style="stop-color:#B1E4FA"/>
	</linearGradient>
	<path id="Path_174" class="st0" d="M-68.8,19.6l-7.7-45.9L-89-27.6L-68.8,19.6z"/>
	
		<linearGradient id="Path_175_1_" gradientUnits="userSpaceOnUse" x1="-530.5139" y1="511.2855" x2="-529.5128" y2="510.6035" gradientTransform="matrix(30.5 0 0 -16.663 16105.0693 8483.1357)">
		<stop  offset="0" style="stop-color:#33BEF2"/>
		<stop  offset="0.75" style="stop-color:#88E1B8"/>
	</linearGradient>
	<path id="Path_175" class="st1" d="M-77-33.4l30.5,10.5l-28.3-16.7L-77-33.4z"/>
	
		<linearGradient id="Path_176_1_" gradientUnits="userSpaceOnUse" x1="-513.4391" y1="499.3448" x2="-513.1941" y2="499.0948" gradientTransform="matrix(14.328 0 0 -11.992 7274.1689 5954.1548)">
		<stop  offset="0" style="stop-color:#7DD2F7"/>
		<stop  offset="1" style="stop-color:#B1E4FA"/>
	</linearGradient>
	<path id="Path_176" class="st2" d="M-89.1-27.6l12.1-5.9l2.2-6.1L-89.1-27.6z"/>
	
		<linearGradient id="Path_177_1_" gradientUnits="userSpaceOnUse" x1="-523.6644" y1="479.7054" x2="-522.8364" y2="478.1974" gradientTransform="matrix(20.881 0 0 -8.087 10847.6064 3846.0356)">
		<stop  offset="0" style="stop-color:#33BEF2"/>
		<stop  offset="0.85" style="stop-color:#88E1B8"/>
	</linearGradient>
	<path id="Path_177" class="st3" d="M-89.1-27.6l20.9,2.2l-8.8-8.1L-89.1-27.6z"/>
	<path id="Path_178" class="st4" d="M-68.2-25.4l21.7,2.4L-77-33.4L-68.2-25.4z"/>
	
		<linearGradient id="Path_179_1_" gradientUnits="userSpaceOnUse" x1="-527.7224" y1="531.6514" x2="-528.0864" y2="531.1003" gradientTransform="matrix(26.529 0 0 -53.4 13921.2949 28385.3496)">
		<stop  offset="0" style="stop-color:#00AEFF"/>
		<stop  offset="1" style="stop-color:#88E1B8"/>
	</linearGradient>
	<path id="Path_179" class="st5" d="M-95.3,25.8l26.5-6.2l-20.3-47.2L-95.3,25.8z"/>
	
		<linearGradient id="Path_180_1_" gradientUnits="userSpaceOnUse" x1="-530.3436" y1="494.3342" x2="-530.3436" y2="493.6162" gradientTransform="matrix(31.1 0 0 -10.632 16413.9199 5277.0137)">
		<stop  offset="0" style="stop-color:#D1D3D5"/>
		<stop  offset="1" style="stop-color:#F6F7F8"/>
	</linearGradient>
	<path id="Path_180" class="st6" d="M-68.8,19.6l4.6,10.6l-31.1-4.4L-68.8,19.6z"/>
	
		<linearGradient id="Path_181_1_" gradientUnits="userSpaceOnUse" x1="-528.3054" y1="512.8339" x2="-527.4273" y2="513.6359" gradientTransform="matrix(26.529 0 0 -18.162 13921.2949 9341.9639)">
		<stop  offset="0" style="stop-color:#F6F7F8;stop-opacity:0.4"/>
		<stop  offset="1" style="stop-color:#F0F2F4;stop-opacity:0"/>
	</linearGradient>
	<path id="Path_181" class="st7" d="M-68.8,19.6l-5.1-12l-21.4,18.2L-68.8,19.6z"/>
	
		<linearGradient id="Path_182_1_" gradientUnits="userSpaceOnUse" x1="-530.3436" y1="492.3645" x2="-530.3436" y2="491.8315" gradientTransform="matrix(31.1 0 0 -10.214 16413.9199 5056.9048)">
		<stop  offset="0" style="stop-color:#D1D3D5"/>
		<stop  offset="1" style="stop-color:#F6F7F8"/>
	</linearGradient>
	<path id="Path_182" class="st8" d="M-64.2,30.2l-8.7,5.8l-22.4-10.2L-64.2,30.2z"/>
	
		<linearGradient id="Path_183_1_" gradientUnits="userSpaceOnUse" x1="-525.2925" y1="532.4003" x2="-523.8065" y2="531.9343" gradientTransform="matrix(21.892 0 0 -56.507 11411.3633 30068.877)">
		<stop  offset="8.000000e-02" style="stop-color:#FDB814"/>
		<stop  offset="0.35" style="stop-color:#FFE966"/>
		<stop  offset="0.75" style="stop-color:#F6F7F8"/>
		<stop  offset="1" style="stop-color:#F0F2F4"/>
	</linearGradient>
	<path id="Path_183" class="st9" d="M-68.2-25.4L-54.7,9l-9.5,21.3l-4.6-10.6l-7.8-45.9L-68.2-25.4z"/>
</g>
<g class="st10">
	<path class="st11" d="M68.2,49.4c-0.6,0.4-1.3,0.8-2.1,1c-0.8,0.2-1.7,0.4-2.7,0.4c-1.2,0-2.3-0.2-3.2-0.6
		c-0.9-0.4-1.7-0.9-2.4-1.6c-0.6-0.7-1.1-1.5-1.5-2.5s-0.5-2.1-0.5-3.3c0-1.3,0.2-2.4,0.5-3.4c0.4-1,0.9-1.8,1.6-2.5
		c0.7-0.7,1.5-1.2,2.4-1.5c0.9-0.4,2-0.5,3.2-0.5c1.8,0,3.3,0.4,4.5,1.3l-1.2,2.2c-0.5-0.3-0.9-0.5-1.4-0.7c-0.5-0.1-1-0.2-1.6-0.2
		c-1.5,0-2.7,0.5-3.4,1.4c-0.8,0.9-1.2,2.2-1.2,3.9c0,1.7,0.4,3,1.2,3.9c0.8,0.9,1.9,1.3,3.4,1.3c0.7,0,1.3-0.1,1.8-0.3
		c0.5-0.2,1-0.4,1.4-0.7L68.2,49.4z"/>
	<path class="st11" d="M73.2,34.6v12c0,0.6,0.1,1,0.3,1.2c0.2,0.2,0.6,0.3,1.1,0.3h0.2v2.4c-0.3,0.1-0.8,0.1-1.4,0.1
		c-1.2,0-2-0.3-2.5-0.9c-0.5-0.6-0.8-1.5-0.8-2.6V34.6H73.2z"/>
	<path class="st11" d="M79.3,45.5c0.1,1,0.4,1.7,1,2.1c0.5,0.4,1.3,0.6,2.2,0.6c0.5,0,1-0.1,1.5-0.2c0.5-0.1,0.9-0.3,1.3-0.6
		l1.1,1.8c-1,0.9-2.4,1.3-4.1,1.3c-1,0-1.9-0.2-2.6-0.5s-1.4-0.7-1.8-1.2c-0.5-0.5-0.9-1.2-1.1-1.9c-0.2-0.7-0.4-1.5-0.4-2.3
		c0-1,0.1-1.8,0.4-2.5c0.3-0.7,0.7-1.3,1.2-1.8c0.5-0.5,1.1-0.9,1.8-1.1c0.7-0.2,1.4-0.4,2.2-0.4c0.8,0,1.5,0.1,2.1,0.4
		c0.6,0.2,1.1,0.6,1.5,1c0.4,0.4,0.7,1,0.9,1.6c0.2,0.6,0.3,1.3,0.3,2c0,0.3,0,0.5,0,0.8s-0.1,0.5-0.1,0.7H79.3z M81.9,41.3
		c-0.7,0-1.3,0.2-1.7,0.6c-0.4,0.4-0.7,1-0.8,1.8h4.5v-0.3c0-0.7-0.2-1.2-0.5-1.6C83,41.5,82.5,41.3,81.9,41.3z"/>
	<path class="st11" d="M88.3,47.3c0-1.2,0.4-2,1.3-2.7c0.8-0.6,2-0.9,3.5-0.9h1.8v-0.4c0-0.6-0.2-1.1-0.5-1.4
		c-0.3-0.3-0.9-0.5-1.6-0.5c-0.6,0-1.1,0.1-1.6,0.2c-0.5,0.2-1,0.4-1.4,0.7l-1.1-1.8c0.6-0.5,1.3-0.8,2.1-1.1
		c0.8-0.3,1.6-0.4,2.5-0.4c1.5,0,2.7,0.4,3.4,1.1s1.2,1.8,1.2,3.2v4.3c0,0.3,0.1,0.6,0.2,0.7c0.1,0.1,0.3,0.2,0.6,0.2h0.2v1.9
		c-0.2,0.1-0.4,0.1-0.6,0.2c-0.2,0-0.5,0.1-0.8,0.1c-0.6,0-1.1-0.1-1.5-0.4c-0.3-0.3-0.5-0.7-0.6-1.2c-0.3,0.5-0.7,0.9-1.3,1.3
		c-0.6,0.3-1.3,0.5-2.1,0.5c-1.1,0-2-0.3-2.7-0.9S88.3,48.4,88.3,47.3z M92.7,48.4c0.6,0,1.1-0.2,1.5-0.6c0.4-0.4,0.5-1,0.5-1.7
		v-0.6h-1.5c-0.6,0-1.1,0.1-1.5,0.4c-0.3,0.3-0.5,0.6-0.5,1.2c0,0.5,0.1,0.8,0.4,1C91.9,48.3,92.3,48.4,92.7,48.4z"/>
	<path class="st11" d="M100.8,39.3h1.8c0.7,0,1.1,0.3,1.1,1v1.4c0.2-0.7,0.6-1.3,1.2-1.8c0.5-0.4,1.2-0.7,2.1-0.7
		c0.3,0,0.6,0,0.9,0.1v2.6h-0.6c-1.1,0-1.9,0.3-2.5,0.9c-0.5,0.6-0.8,1.5-0.8,2.9v4.9h-3.1V39.3z"/>
	<path class="st11" d="M118.2,47.9h6.8v2.5h-10V35.2h3.2V47.9z"/>
	<path class="st11" d="M126.8,34.8h3.2v2.8h-3.2V34.8z M129.9,50.4h-3.1V39.3h3.1V50.4z"/>
	<path class="st11" d="M133,39.3h1.8c0.7,0,1.1,0.3,1.1,1v0.8c0.3-0.6,0.8-1.1,1.4-1.5c0.6-0.4,1.4-0.6,2.3-0.6c1.2,0,2.1,0.3,2.8,1
		c0.7,0.7,1,1.7,1,3.1v7.3h-3.1v-7c0-1.3-0.6-1.9-1.7-1.9c-0.7,0-1.3,0.3-1.7,0.8c-0.4,0.5-0.6,1.2-0.6,2.1v6.1H133V39.3z"/>
	<path class="st11" d="M156.3,50.4h-1.8c-0.4,0-0.7-0.1-0.9-0.3c-0.2-0.2-0.3-0.4-0.3-0.8v-0.6c-0.3,0.7-0.7,1.2-1.4,1.5
		c-0.6,0.3-1.3,0.5-2.1,0.5c-1.2,0-2.1-0.4-2.8-1.1s-0.9-1.8-0.9-3.1v-7.2h3.1v7c0,0.7,0.1,1.2,0.4,1.5c0.3,0.3,0.7,0.5,1.2,0.5
		c0.7,0,1.3-0.3,1.6-0.8c0.4-0.5,0.5-1.2,0.5-2.1v-6.1h3.1V50.4z"/>
	<path class="st11" d="M165.1,44.6l4,5.8h-3.4l-2.3-3.7l-2.3,3.7h-3.3l4-5.7l-3.8-5.5h3.4l2.1,3.5l2-3.5h3.3L165.1,44.6z"/>
	<path class="st11" d="M174.8,35.2l-0.3,2.6l2.2-1.2l0.8,2.1l-2.4,0.7l2,2.1l-1.8,1.4l-1.5-2.5l-1.5,2.5l-1.8-1.4l1.9-2.1l-2.4-0.7
		l0.8-2.1l2.2,1.2l-0.3-2.6H174.8z"/>
</g>
<g class="st10">
	<path class="st11" d="M58.7,73.4h-2.1V58.2h5.2c1.7,0,3,0.4,3.9,1.3c0.9,0.8,1.4,2,1.4,3.5c0,1.5-0.5,2.7-1.4,3.5
		c-0.9,0.9-2.2,1.3-3.9,1.3h-3.2V73.4z M58.7,66.1h3.1c1.1,0,1.9-0.2,2.4-0.7c0.6-0.5,0.8-1.3,0.8-2.3s-0.3-1.8-0.8-2.3
		c-0.6-0.5-1.4-0.7-2.4-0.7h-3.1V66.1z"/>
	<path class="st11" d="M69.9,62.4h1c0.6,0,0.9,0.3,0.9,0.8v1.1c0.3-0.6,0.8-1.1,1.3-1.5c0.6-0.3,1.3-0.5,2.1-0.5c0.2,0,0.4,0,0.6,0
		c0.2,0,0.3,0,0.4,0.1V64h-0.7c-1.2,0-2.1,0.3-2.7,1c-0.6,0.6-0.9,1.7-0.9,3.1v5.3h-2V62.4z"/>
	<path class="st11" d="M88,67.9c0,0.9-0.1,1.7-0.4,2.4c-0.3,0.7-0.6,1.3-1.1,1.8c-0.5,0.5-1,0.9-1.7,1.2c-0.7,0.3-1.4,0.4-2.2,0.4
		c-0.8,0-1.6-0.1-2.2-0.4s-1.2-0.7-1.7-1.2c-0.5-0.5-0.8-1.1-1.1-1.8c-0.3-0.7-0.4-1.5-0.4-2.4s0.1-1.7,0.4-2.4
		c0.3-0.7,0.6-1.3,1.1-1.8c0.5-0.5,1-0.9,1.7-1.2c0.7-0.3,1.4-0.4,2.2-0.4c0.8,0,1.5,0.1,2.2,0.4c0.7,0.3,1.2,0.7,1.7,1.2
		c0.5,0.5,0.8,1.1,1.1,1.8C87.9,66.3,88,67.1,88,67.9z M85.9,67.9c0-1.3-0.3-2.3-0.9-3c-0.6-0.7-1.4-1.1-2.5-1.1
		c-1.1,0-1.9,0.4-2.5,1.1c-0.6,0.7-0.9,1.7-0.9,3s0.3,2.3,0.9,3c0.6,0.7,1.4,1.1,2.5,1.1c1.1,0,1.9-0.4,2.5-1.1
		C85.7,70.2,85.9,69.2,85.9,67.9z"/>
	<path class="st11" d="M89.1,76.6c0.4,0,0.6,0,0.8-0.1c0.2,0,0.4-0.1,0.5-0.2s0.2-0.3,0.2-0.5c0-0.2,0.1-0.4,0.1-0.7V62.4h2v12.8
		c0,1-0.2,1.7-0.7,2.2c-0.4,0.5-1.2,0.7-2.2,0.7c-0.2,0-0.3,0-0.5,0c-0.2,0-0.3,0-0.5-0.1v-1.5H89.1z M90.7,58h2v2.2h-2V58z"/>
	<path class="st11" d="M97.5,68.4c0.1,1.2,0.4,2.1,1.1,2.7s1.6,0.9,2.7,0.9c1.1,0,2.1-0.3,2.8-0.9l0.8,1.3c-0.5,0.4-1.1,0.8-1.7,1
		c-0.6,0.2-1.3,0.3-2.1,0.3c-0.8,0-1.6-0.1-2.3-0.4c-0.7-0.3-1.3-0.6-1.8-1.1c-0.5-0.5-0.9-1.1-1.1-1.8s-0.4-1.6-0.4-2.5
		c0-0.9,0.1-1.7,0.4-2.4s0.6-1.3,1.1-1.8s1-0.9,1.7-1.1c0.6-0.3,1.3-0.4,2.1-0.4s1.4,0.1,2,0.4c0.6,0.2,1,0.6,1.4,1
		c0.4,0.4,0.7,1,0.9,1.6c0.2,0.6,0.3,1.3,0.3,2c0,0.5,0,0.9-0.1,1.3H97.5z M100.8,63.8c-0.9,0-1.7,0.3-2.2,0.8
		c-0.6,0.6-0.9,1.3-1.1,2.3h5.9v-0.2c0-0.9-0.2-1.7-0.7-2.2C102.3,64,101.6,63.8,100.8,63.8z"/>
	<path class="st11" d="M109.4,67.9c0,1.3,0.3,2.3,1,3c0.7,0.7,1.6,1.1,2.7,1.1c0.4,0,0.9-0.1,1.3-0.2s0.9-0.3,1.2-0.6l0.8,1.4
		c-0.9,0.7-2.1,1.1-3.5,1.1c-0.9,0-1.8-0.1-2.5-0.4c-0.7-0.3-1.3-0.7-1.7-1.2c-0.5-0.5-0.8-1.1-1-1.8c-0.2-0.7-0.3-1.5-0.3-2.3
		c0-0.9,0.1-1.7,0.4-2.4c0.3-0.7,0.6-1.3,1.1-1.8c0.5-0.5,1.1-0.9,1.8-1.2c0.7-0.3,1.5-0.4,2.4-0.4c1.4,0,2.5,0.4,3.4,1.1l-0.8,1.4
		c-0.3-0.2-0.6-0.4-1-0.5c-0.4-0.1-0.9-0.2-1.5-0.2c-1.1,0-2,0.3-2.7,1S109.4,66.6,109.4,67.9z"/>
	<path class="st11" d="M124.2,73.4c-0.2,0-0.4,0.1-0.6,0.1c-0.2,0-0.4,0-0.6,0c-1.2,0-2.1-0.3-2.7-0.9c-0.5-0.6-0.8-1.6-0.8-2.9V64
		h-1.9v-1.6h1.9v-2.8h2v2.8h2.8V64h-2.8v5.9c0,0.7,0.2,1.3,0.5,1.5c0.3,0.3,0.9,0.4,1.7,0.4h0.5V73.4z"/>
</g>
</svg>
